<svg width="29" height="30" viewBox="0 0 29 30" fill="none" xmlns="http://www.w3.org/2000/svg">
<path fill-rule="evenodd" clip-rule="evenodd" d="M1.09689 28.1147L6.58482 26.6751L7.1143 26.9893C9.34055 28.3104 11.8925 29.0094 14.4944 29.0105H14.5003C22.4922 29.0105 28.9968 22.5057 29 14.5105C29.0015 10.636 27.4947 6.99306 24.7571 4.25227C22.0195 1.51147 18.3789 0.00134281 14.506 0C6.50788 0 0.00317481 6.50412 1.23292e-06 14.4987C-0.00112216 17.2385 0.765474 19.9068 2.21694 22.2154L2.5617 22.764L1.09689 28.1147ZM22.6922 18.2673C22.9963 18.4142 23.2016 18.5134 23.2892 18.6598C23.3982 18.8415 23.3982 19.7143 23.0351 20.7327C22.6717 21.7509 20.9303 22.6802 20.0927 22.8053C19.3418 22.9175 18.3914 22.9644 17.3472 22.6325C16.7141 22.4317 15.9022 22.1635 14.8622 21.7143C10.7757 19.9498 8.01412 15.9891 7.49218 15.2405C7.45562 15.1881 7.43004 15.1514 7.41578 15.1324L7.41226 15.1277C7.18158 14.8199 5.63588 12.7576 5.63588 10.6231C5.63588 8.61525 6.62218 7.56282 7.07618 7.07839C7.10728 7.0452 7.13589 7.01468 7.1615 6.98669C7.56105 6.55029 8.03332 6.44119 8.3239 6.44119C8.61446 6.44119 8.90538 6.44387 9.15935 6.45663C9.19069 6.4582 9.22328 6.45801 9.25698 6.45781C9.511 6.45632 9.82769 6.45447 10.1401 7.2049C10.2603 7.49368 10.4361 7.92179 10.6216 8.37333C10.9967 9.28652 11.4111 10.2955 11.4841 10.4415C11.5931 10.6597 11.6657 10.9142 11.5204 11.2052C11.4986 11.2489 11.4784 11.29 11.4591 11.3294C11.35 11.5522 11.2697 11.7161 11.0845 11.9323C11.0117 12.0174 10.9364 12.1091 10.8611 12.2007C10.7112 12.3834 10.5612 12.566 10.4306 12.696C10.2124 12.9134 9.98526 13.1492 10.2395 13.5856C10.4938 14.022 11.3686 15.4494 12.6645 16.6053C14.0575 17.8478 15.2681 18.3729 15.8818 18.6391C16.0017 18.6911 16.0987 18.7332 16.1699 18.7689C16.6057 18.9871 16.86 18.9506 17.1143 18.6598C17.3686 18.3689 18.2039 17.3869 18.4945 16.9506C18.785 16.5143 19.0757 16.587 19.4752 16.7324C19.8749 16.878 22.0179 17.9324 22.4538 18.1506C22.5389 18.1932 22.6185 18.2316 22.6922 18.2673Z" fill="#1E252C"/>
</svg>
