<svg width="24" height="24" viewBox="0 0 24 24" fill="none" xmlns="http://www.w3.org/2000/svg">
<g id="WhatsApp">
<path id="Combined-Shape" fill-rule="evenodd" clip-rule="evenodd" d="M0.907771 23.2673L5.44951 22.0759L5.88769 22.336C7.73011 23.4293 9.84207 24.0078 11.9954 24.0087H12.0002C18.6142 24.0087 23.9974 18.6254 24 12.0087C24.0013 8.80224 22.7543 5.78736 20.4887 3.51912C18.2231 1.25087 15.2101 0.00111127 12.0049 0C5.38583 0 0.00262743 5.38272 1.02035e-06 11.9989C-0.000928685 14.2664 0.633496 16.4746 1.83471 18.3851L2.12003 18.8391L0.907771 23.2673ZM18.7799 15.1174C19.0315 15.239 19.2014 15.3211 19.274 15.4422C19.3641 15.5926 19.3641 16.3149 19.0637 17.1577C18.7629 18.0003 17.3218 18.7694 16.6286 18.8729C16.0071 18.9659 15.2206 19.0046 14.3565 18.73C13.8325 18.5637 13.1606 18.3418 12.2999 17.9701C8.91799 16.5098 6.63251 13.232 6.20055 12.6125C6.1703 12.5691 6.14913 12.5387 6.13732 12.5229L6.13441 12.5191C5.9435 12.2643 4.66431 10.5576 4.66431 8.79116C4.66431 7.12947 5.48056 6.2585 5.85628 5.85758C5.88202 5.83012 5.90569 5.80486 5.92689 5.7817C6.25755 5.42054 6.6484 5.33025 6.88888 5.33025C7.12934 5.33025 7.3701 5.33247 7.58028 5.34303C7.60622 5.34433 7.63319 5.34417 7.66108 5.34401C7.8713 5.34277 8.13339 5.34124 8.39194 5.96228C8.49141 6.20129 8.63695 6.55563 8.79046 6.92934C9.10087 7.68506 9.44384 8.52003 9.50418 8.64086C9.59439 8.82144 9.6545 9.03203 9.53426 9.27289C9.51621 9.30901 9.49951 9.34309 9.48356 9.37566C9.39325 9.56004 9.32681 9.69567 9.17352 9.87465C9.11325 9.94502 9.05095 10.0209 8.98866 10.0968C8.86455 10.2479 8.74045 10.399 8.63239 10.5067C8.4518 10.6866 8.2638 10.8817 8.47423 11.2429C8.68466 11.6041 9.40866 12.7853 10.4811 13.7419C11.6339 14.7702 12.6358 15.2048 13.1437 15.4251C13.2429 15.4681 13.3232 15.503 13.3822 15.5325C13.7428 15.7131 13.9532 15.6829 14.1637 15.4422C14.3741 15.2014 15.0655 14.3888 15.3059 14.0277C15.5464 13.6667 15.7869 13.7268 16.1175 13.8471C16.4483 13.9676 18.2219 14.8402 18.5826 15.0208C18.653 15.0561 18.7189 15.0879 18.7799 15.1174Z" fill="white"/>
</g>
</svg>
